<svg width="25" height="5" viewBox="0 0 25 5" fill="none" xmlns="http://www.w3.org/2000/svg">
<path d="M0.687586 2.49996C0.687586 1.82967 0.926247 1.25586 1.40356 0.778516C1.88091 0.301172 2.45472 0.0625 3.12501 0.0625C3.79532 0.0625 4.36913 0.301172 4.84645 0.778516C5.3238 1.25586 5.56247 1.82967 5.56247 2.49996C5.56247 3.17024 5.3238 3.74406 4.84645 4.2214C4.36913 4.69875 3.79532 4.93742 3.12501 4.93742C2.45472 4.93742 1.88091 4.69875 1.40356 4.2214C0.926247 3.74406 0.687586 3.17024 0.687586 2.49996ZM10.0625 2.49996C10.0625 1.82967 10.3012 1.25586 10.7786 0.778516C11.2559 0.301172 11.8297 0.0625 12.5 0.0625C13.1703 0.0625 13.7441 0.301172 14.2214 0.778516C14.6988 1.25586 14.9375 1.82967 14.9375 2.49996C14.9375 3.17024 14.6988 3.74406 14.2214 4.2214C13.7441 4.69875 13.1703 4.93742 12.5 4.93742C11.8297 4.93742 11.2559 4.69875 10.7786 4.2214C10.3012 3.74406 10.0625 3.17024 10.0625 2.49996ZM19.4375 2.49996C19.4375 1.82967 19.6762 1.25586 20.1535 0.778516C20.6309 0.301172 21.2047 0.0625 21.875 0.0625C22.5453 0.0625 23.1191 0.301172 23.5964 0.778516C24.0737 1.25586 24.3124 1.82967 24.3124 2.49996C24.3124 3.17024 24.0737 3.74406 23.5964 4.2214C23.1191 4.69875 22.5453 4.93742 21.875 4.93742C21.2047 4.93742 20.6309 4.69875 20.1535 4.2214C19.6762 3.74406 19.4375 3.17024 19.4375 2.49996Z" fill="currentColor"/>
</svg>
