<svg width="28" height="20" viewBox="0 0 28 20" fill="none" xmlns="http://www.w3.org/2000/svg">
<path d="M26.9414 1.55835C27.2407 1.5267 27.5 1.761 27.5 2.05737V17.9138C27.5 18.2148 27.2323 18.4523 26.9277 18.4128C17.0196 17.1301 10.9738 17.1762 1.06934 18.4177C0.766168 18.4557 0.5 18.2198 0.5 17.9197V2.0603L0.511719 1.9519C0.565515 1.70864 0.797141 1.53305 1.05957 1.56128C10.9804 2.62907 17.0227 2.60738 26.9414 1.55835Z" stroke="currentColor"/>
<path d="M16.4539 9.61843C16.7619 9.81304 16.7649 10.2613 16.4596 10.4602L12.6193 12.9613C12.288 13.177 11.8487 12.941 11.8459 12.5457L11.8119 7.59656C11.8095 7.20143 12.2454 6.95938 12.5795 7.17038L16.4539 9.61843Z" stroke="currentColor"/>
</svg>
